<svg width="69" height="47" viewBox="0 0 69 47" fill="none" xmlns="http://www.w3.org/2000/svg">
<path d="M19.3224 34.0671C15.7438 34.0671 12.8424 31.1453 12.8424 27.5415C12.8424 23.9377 15.7438 21.0158 19.3224 21.0158C22.2683 21.0158 24.7551 22.9954 25.5423 25.7054L36.747 19.1228C33.6299 12.5918 26.999 8.08292 19.3224 8.08292C8.65085 8.08292 0 16.7955 0 27.5415C0 38.2882 8.65085 47 19.3224 47C29.994 47 38.6448 38.2882 38.6448 27.5415H25.8024C25.8024 31.1453 22.9009 34.0671 19.3224 34.0671Z" fill="#6BAABF"/>
<path d="M53.8224 12.257C45.44 12.257 38.6448 19.1008 38.6448 27.5415H49.7929C49.7929 25.3 51.5965 23.4836 53.8224 23.4836C56.0474 23.4836 57.8518 25.3 57.8518 27.5415C57.8518 29.783 56.0474 31.5994 53.8224 31.5994C51.8981 31.5994 50.289 30.2417 49.8887 28.4246L40.1347 34.1545C42.5838 39.2845 47.7918 42.826 53.8224 42.826C62.2048 42.826 69 35.983 69 27.5415C68.9999 19.1008 62.2048 12.257 53.8224 12.257Z" fill="#6BAABF"/>
<path d="M37.7316 10.2289C41.4933 10.2289 45.2312 9.69808 48.8677 8.72895C50.4488 8.30759 52.1094 8.08303 53.8223 8.08303C54.7528 8.08303 55.6674 8.14912 56.5624 8.27743C56.1183 5.96225 54.8983 3.92496 53.1867 2.45111C51.4118 0.922598 49.1082 0 46.5898 0H20.7173C23.9814 6.09059 30.377 10.2289 37.7316 10.2289Z" fill="#6BAABF"/>
</svg>
